<?xml version="1.0" encoding="UTF-8"?>
<svg id="Calque_1" data-name="Calque 1" xmlns="http://www.w3.org/2000/svg" viewBox="0 0 297 116">
  <path d="m157.99,41.06c-1.56,1.7-3.79,3.06-6.76,4.13-2.97,1.07-6.23,1.55-9.73,1.55-5.45,0-9.78-1.65-13.04-5-3.26-3.35-5.01-7.92-5.25-13.84v-3.59c0-4.08.68-7.63,2.14-10.68,1.46-3.06,3.55-5.39,6.23-6.99,2.68-1.6,5.79-2.48,9.34-2.48,5.16,0,9.19,1.17,12.06,3.55,2.87,2.38,4.52,5.88,5.01,10.59h-9.63c-.34-2.33-1.07-3.98-2.24-4.95-1.17-.97-2.77-1.46-4.86-1.46-2.53,0-4.43,1.07-5.84,3.21-1.41,2.14-2.04,5.15-2.09,9.13v2.53c0,4.13.73,7.24,2.14,9.32,1.41,2.09,3.65,3.11,6.66,3.11,2.63,0,4.52-.58,5.84-1.75v-6.41h-6.96v-6.85h16.98v17-.1Z" style="fill: #201c40;"/>
  <path d="m180.71,46.16c-.34-.63-.63-1.55-.92-2.77-1.75,2.23-4.23,3.35-7.39,3.35-2.92,0-5.4-.87-7.39-2.62-1.99-1.75-3.06-3.98-3.06-6.61,0-3.35,1.22-5.88,3.7-7.58,2.48-1.7,6.08-2.57,10.75-2.57h2.97v-1.65c0-2.82-1.22-4.27-3.7-4.27-2.29,0-3.41,1.12-3.41,3.35h-9.58c0-2.96,1.27-5.39,3.79-7.24,2.53-1.85,5.79-2.77,9.73-2.77s7.05.97,9.34,2.87c2.29,1.89,3.45,4.57,3.5,7.87v13.65c0,2.82.49,5,1.31,6.51v.49h-9.63Zm-6.03-6.27c1.22,0,2.19-.24,2.97-.78.78-.53,1.36-1.07,1.7-1.75v-4.91h-2.77c-3.36,0-5.01,1.51-5.01,4.52,0,.87.29,1.6.88,2.14.58.53,1.36.83,2.24.83v-.05Z" style="fill: #201c40;"/>
  <path d="m203.43,15.37l.29,3.59c2.19-2.77,5.11-4.18,8.81-4.18,3.89,0,6.52,1.55,7.88,4.66,2.09-3.11,5.11-4.66,9.05-4.66,6.28,0,9.49,3.79,9.63,11.32v17.29l-9.63,2.77v-19.43c0-1.55-.24-2.72-.78-3.45-.54-.73-1.51-1.07-2.92-1.07-1.9,0-3.31.83-4.23,2.53v18.65l-9.63,2.77v-19.38c0-1.6-.24-2.77-.78-3.5-.54-.73-1.51-1.07-2.92-1.07-1.85,0-3.26.83-4.23,2.53v18.7l-9.58,2.77V15.37h9.05Z" style="fill: #201c40;"/>
  <path d="m259.57,46.74c-4.72,0-8.56-1.41-11.48-4.23-2.92-2.82-4.38-6.46-4.38-10.98v-.78c0-3.16.58-5.93,1.75-8.35,1.17-2.43,2.87-4.27,5.11-5.59,2.24-1.31,4.91-1.99,7.98-1.99,4.33,0,7.74,1.36,10.26,4.03,2.53,2.67,3.75,6.41,3.75,11.22v3.74h-19.12c.34,1.75,1.07,3.06,2.24,4.08,1.17,1.02,2.68,1.46,4.52,1.46,3.02,0,5.4-1.07,7.1-3.21l4.38,5.2c-1.22,1.65-2.87,2.96-5.11,3.93-2.24.97-4.57,1.46-7.1,1.46h.1Zm-1.07-24.53c-2.82,0-4.48,1.85-5.01,5.59h9.68v-.73c0-1.55-.34-2.72-1.17-3.59-.83-.87-1.99-1.26-3.5-1.26Z" style="fill: #201c40;"/>
  <path d="m295.08,24.06l-3.16-.24c-3.02,0-4.96.97-5.84,2.87v16.76l-9.58,2.77V15.37h9l.29,3.93c1.61-3.01,3.84-4.52,6.76-4.52,1.02,0,1.9.1,2.68.34l-.19,8.89.05.05Z" style="fill: #201c40;"/>
  <path d="m157.81,98.45l-9.92,2.77v-17.29h-14.74v14.57l-10.02,2.77v-41.48l10.02,2.77v13.7h14.74v-16.46l9.92,2.77v35.94-.05Z" style="fill: #201c40;"/>
  <path d="m178.63,101.8c-4.72,0-8.56-1.41-11.48-4.23-2.92-2.82-4.38-6.46-4.38-10.98v-.78c0-3.16.58-5.93,1.75-8.35,1.17-2.43,2.87-4.27,5.11-5.59,2.24-1.31,4.91-1.99,7.98-1.99,4.33,0,7.74,1.36,10.26,4.03,2.53,2.67,3.75,6.41,3.75,11.22v3.74h-19.12c.34,1.75,1.07,3.06,2.24,4.08,1.17,1.02,2.68,1.46,4.52,1.46,3.02,0,5.4-1.07,7.1-3.21l4.38,5.2c-1.22,1.65-2.87,2.96-5.11,3.93-2.24.97-4.57,1.46-7.1,1.46h.1Zm-1.07-24.53c-2.82,0-4.48,1.85-5.01,5.59h9.68v-.73c0-1.55-.34-2.72-1.17-3.59-.83-.87-1.99-1.26-3.5-1.26Z" style="fill: #201c40;"/>
  <path d="m205.63,98.45l-9.63,2.77v-43.71l9.63,2.77v38.22-.05Z" style="fill: #201c40;"/>
  <path d="m240.17,86.07c0,4.76-1.07,8.6-3.26,11.46-2.19,2.87-5.06,4.27-8.76,4.27-2.82,0-5.16-1.02-7.01-3.11v11.61l-9.58,2.77v-42.64h9l.29,2.87c1.85-2.28,4.28-3.4,7.25-3.4,3.79,0,6.76,1.41,8.85,4.18,2.09,2.77,3.16,6.65,3.16,11.56v.44h.05Zm-9.58-.58c0-5.44-1.61-8.21-4.77-8.21-2.29,0-3.79.83-4.57,2.43v12.14c.83,1.7,2.38,2.57,4.62,2.57,3.06,0,4.62-2.62,4.72-7.92v-1.02Z" style="fill: #201c40;"/>
  <path d="m259.34,101.8c-4.72,0-8.56-1.41-11.48-4.23-2.92-2.82-4.38-6.46-4.38-10.98v-.78c0-3.16.58-5.93,1.75-8.35,1.17-2.43,2.87-4.27,5.11-5.59,2.24-1.31,4.91-1.99,7.98-1.99,4.33,0,7.74,1.36,10.26,4.03,2.53,2.67,3.75,6.41,3.75,11.22v3.74h-19.12c.34,1.75,1.07,3.06,2.24,4.08,1.17,1.02,2.68,1.46,4.52,1.46,3.02,0,5.4-1.07,7.1-3.21l4.38,5.2c-1.22,1.65-2.87,2.96-5.11,3.93-2.24.97-4.57,1.46-7.1,1.46h.1Zm-1.07-24.53c-2.82,0-4.48,1.85-5.01,5.59h9.68v-.73c0-1.55-.34-2.72-1.17-3.59-.83-.87-1.99-1.26-3.5-1.26Z" style="fill: #201c40;"/>
  <path d="m294.85,79.12l-3.16-.24c-3.02,0-4.96.97-5.84,2.87v16.76l-9.58,2.77v-30.79h9l.29,3.93c1.61-3.01,3.84-4.52,6.76-4.52,1.02,0,1.9.1,2.68.34l-.19,8.89h.05Z" style="fill: #201c40;"/>
  <g>
    <path d="m33.26,10.72l-5.87,26.12c-.73,3.27-4.04,5.89-7.37,5.84l-9.18-.12c-2.08-.03-4.03,1.15-4.47,3.21L.31,73.89h31.84l5.89-25.52c.75-3.25,4.07-5.85,7.4-5.81l7.85.1c2.82.04,5.64-2.14,6.29-4.87l6.51-27.13-32.83.05" style="fill: #201c40;"/>
    <path d="m49.68,10.69l-16.42.02-5.87,26.12c-.73,3.24-3.98,5.85-7.29,5.85-.03,0-.06,0-.08,0l-9.18-.12s-.05,0-.07,0c-2.05,0-3.96,1.18-4.4,3.21L.3,73.88h0l6.06-28.11c.44-2.03,2.35-3.21,4.4-3.21.02,0,.05,0,.07,0l9.18.12s.06,0,.08,0c3.31,0,6.56-2.6,7.29-5.85l5.87-26.12,16.41-.02s0,0,0,0" style="fill: #fbfbfb;"/>
    <path d="m49.67,10.7l-16.41.02-5.87,26.12c-.73,3.24-3.98,5.85-7.29,5.85-.03,0-.06,0-.08,0l-9.18-.12s-.05,0-.07,0c-2.05,0-3.96,1.18-4.4,3.21L.31,73.88h4.04c.21-5.19,1.7-11.45,9.2-15.95,12.8-7.68,20.06-17.75,25.6-32.49,2.6-6.91,6.52-11.54,10.51-14.74" style="fill: #7c7a8e;"/>
  </g>
  <g>
    <path d="m65.33,42.56l-5.76,25.66c-.73,3.27-4.04,5.89-7.37,5.84l-9.18-.12c-2.08-.03-4.13,1.62-4.57,3.67l-6.06,28.12h31.84l5.89-25.52c.75-3.25,4.07-5.85,7.4-5.81l7.85.1c2.82.04,5.64-2.14,6.29-4.87l6.51-27.13-32.83.05" style="fill: #f0890f;"/>
    <path d="m55.14,73.43c-.88.36-1.86.54-2.92.54-.04,0-.08,0-.13,0l-9.18-.12s-.03,0-.05,0c-1.99,0-3.85,1.61-4.37,3.56.52-1.94,2.48-3.47,4.47-3.47.02,0,.03,0,.05,0l9.18.12s.06,0,.08,0c.98,0,1.96-.23,2.86-.63m4.26-4.6c-.65,1.46-1.45,2.6-2.39,3.43,1.09-.91,1.95-2.1,2.39-3.43m22.36-26.3l-16.42.02,16.42-.02s0,0,0,0" style="fill: #fbfbfb;"/>
    <path d="m81.75,42.53l-16.42.02-5.87,26.12c-.02.05-.04.1-.07.15-.44,1.33-1.3,2.52-2.39,3.43-.57.5-1.19.89-1.87,1.17-.91.41-1.88.63-2.86.63-.03,0-.06,0-.08,0l-9.18-.12s-.03,0-.05,0c-1.99,0-3.94,1.53-4.47,3.47-.02.07-.03.13-.05.2l-6.06,28.12h4.05c.21-5.19,1.7-11.45,9.2-15.95,12.8-7.68,20.06-17.75,25.6-32.49,2.6-6.92,6.52-11.55,10.52-14.75" style="fill: #f2b872;"/>
  </g>
</svg>