<?xml version="1.0" encoding="utf-8"?>
<svg width="288" height="320" viewBox="0 0 288 320" xmlns="http://www.w3.org/2000/svg">
<rect id="frame" x="0" y="0" width="288" height="320" fill="#f7f7f7" stroke="none" stroke-width="0"/>

<!-- Association POSSEDE -->
<g class="page_0_6DyWRmc7 diagram_page" visibility="visible">
	<line x1="43" y1="68" x2="146" y2="68" stroke="#8073ac" stroke-width="2"/>
	<text x="82" y="85" fill="#b35806" font-family="Verdana" font-size="12">0,N</text>
	<line x1="146" y1="160" x2="146" y2="68" stroke="#8073ac" stroke-width="2"/>
	<text x="151" y="110" fill="#b35806" font-family="Verdana" font-size="12">1,1</text>
	<g>
		<path d="M169 43 a14 14 90 0 1 14 14 V68 h-74 V57 a14 14 90 0 1 14 -14" fill="#b2abd2" stroke="#b2abd2" stroke-width="0"/>
		<path d="M183 68 v11 a14 14 90 0 1 -14 14 H123 a14 14 90 0 1 -14 -14 V68 H74" fill="#d8daeb" stroke="#d8daeb" stroke-width="0"/>
		<rect x="109" y="43" width="74" height="50" fill="none" rx="14" stroke="#8073ac" stroke-width="2"/>
		<line x1="109" y1="68" x2="183" y2="68" stroke="#8073ac" stroke-width="1"/>
		<text x="117" y="60.75" fill="#000" font-family="Verdana" font-size="12">POSSEDE</text>
	</g>
</g>

<!-- Association CONTIENT -->
<g class="page_0_6DyWRmc7 diagram_page" visibility="visible">
	<line x1="146" y1="160" x2="146" y2="252" stroke="#8073ac" stroke-width="2"/>
	<text x="151" y="219" fill="#b35806" font-family="Verdana" font-size="12">1,N</text>
	<line x1="248" y1="252" x2="146" y2="252" stroke="#8073ac" stroke-width="2"/>
	<text x="190" y="269" fill="#b35806" font-family="Verdana" font-size="12">1,N</text>
	<g>
		<path d="M171 227 a14 14 90 0 1 14 14 V252 h-78 V241 a14 14 90 0 1 14 -14" fill="#b2abd2" stroke="#b2abd2" stroke-width="0"/>
		<path d="M185 252 v11 a14 14 90 0 1 -14 14 H121 a14 14 90 0 1 -14 -14 V252 H78" fill="#d8daeb" stroke="#d8daeb" stroke-width="0"/>
		<rect x="107" y="227" width="78" height="50" fill="none" rx="14" stroke="#8073ac" stroke-width="2"/>
		<line x1="107" y1="252" x2="185" y2="252" stroke="#8073ac" stroke-width="1"/>
		<text x="114" y="244.75" fill="#000" font-family="Verdana" font-size="12">CONTIENT</text>
	</g>
</g>

<!-- Entity USER -->
<g class="page_0_6DyWRmc7 diagram_page" visibility="visible">
	<g>
		<rect x="9" y="9" width="68" height="25" fill="#fdb863" stroke="#fdb863" stroke-width="0" opacity="1"/>
		<rect x="9" y="34" width="68" height="93" fill="#fee0b6" stroke="#fee0b6" stroke-width="0" opacity="1"/>
		<rect x="9" y="9" width="68" height="118" fill="none" stroke="#e08214" stroke-width="2" opacity="1"/>
		<line x1="9" y1="34" x2="77" y2="34" stroke="#e08214" stroke-width="1"/>
	</g>
	<text x="26" y="26.75" fill="#000" font-family="Verdana" font-size="12">USER</text>
	<text x="14" y="51.8" fill="#000" font-family="Verdana" font-size="12">code</text>
	<line x1="14" y1="54" x2="43" y2="54" stroke="#000" stroke-width="1"/>
	<text x="14" y="68.8" fill="#000" font-family="Verdana" font-size="12">firstname</text>
	<text x="14" y="85.8" fill="#000" font-family="Verdana" font-size="12">lastname</text>
	<text x="14" y="102.8" fill="#000" font-family="Verdana" font-size="12">pseudo</text>
	<text x="14" y="119.8" fill="#000" font-family="Verdana" font-size="12">email</text>
</g>

<!-- Entity BUILD -->
<g class="page_0_6DyWRmc7 diagram_page" visibility="visible">
	<g>
		<rect x="120" y="118" width="52" height="25" fill="#fdb863" stroke="#fdb863" stroke-width="0" opacity="1"/>
		<rect x="120" y="143" width="52" height="59" fill="#fee0b6" stroke="#fee0b6" stroke-width="0" opacity="1"/>
		<rect x="120" y="118" width="52" height="84" fill="none" stroke="#e08214" stroke-width="2" opacity="1"/>
		<line x1="120" y1="143" x2="172" y2="143" stroke="#e08214" stroke-width="1"/>
	</g>
	<text x="127" y="135.75" fill="#000" font-family="Verdana" font-size="12">BUILD</text>
	<text x="125" y="160.8" fill="#000" font-family="Verdana" font-size="12">code</text>
	<line x1="125" y1="163" x2="154" y2="163" stroke="#000" stroke-width="1"/>
	<text x="125" y="177.8" fill="#000" font-family="Verdana" font-size="12">title</text>
	<text x="125" y="194.8" fill="#000" font-family="Verdana" font-size="12">widget</text>
</g>

<!-- Entity WIDGET -->
<g class="page_0_6DyWRmc7 diagram_page" visibility="visible">
	<g>
		<rect x="217" y="193" width="62" height="25" fill="#fdb863" stroke="#fdb863" stroke-width="0" opacity="1"/>
		<rect x="217" y="218" width="62" height="93" fill="#fee0b6" stroke="#fee0b6" stroke-width="0" opacity="1"/>
		<rect x="217" y="193" width="62" height="118" fill="none" stroke="#e08214" stroke-width="2" opacity="1"/>
		<line x1="217" y1="218" x2="279" y2="218" stroke="#e08214" stroke-width="1"/>
	</g>
	<text x="223" y="210.75" fill="#000" font-family="Verdana" font-size="12">WIDGET</text>
	<text x="222" y="235.8" fill="#000" font-family="Verdana" font-size="12">code</text>
	<line x1="222" y1="238" x2="251" y2="238" stroke="#000" stroke-width="1"/>
	<text x="222" y="252.8" fill="#000" font-family="Verdana" font-size="12">widget</text>
	<text x="222" y="269.8" fill="#000" font-family="Verdana" font-size="12">position</text>
	<text x="222" y="286.8" fill="#000" font-family="Verdana" font-size="12">width</text>
	<text x="222" y="303.8" fill="#000" font-family="Verdana" font-size="12">height</text>
</g>
</svg>